<svg xmlns="http://www.w3.org/2000/svg" viewBox="0 0 256 256">
  <!-- UI Element Sprite Sheet (32x32px elements) -->
  
  <!-- 0: Tile Selection -->
  <g id="tile_selection">
    <path d="M16 8L0 16L16 24L32 16L16 8Z" fill="#FFFFFF" fill-opacity="0.3" stroke="#FFFFFF" stroke-width="1" />
  </g>
  
  <!-- 1: Action Button - Move -->
  <g id="action_move" transform="translate(32 0)">
    <circle cx="16" cy="16" r="14" fill="#3F51B5" stroke="#1A237E" stroke-width="1" />
    <!-- Arrow icon -->
    <path d="M16 8L22 16H18V24H14V16H10L16 8Z" fill="#FFFFFF" />
  </g>
  
  <!-- 2: Action Button - Attack -->
  <g id="action_attack" transform="translate(64 0)">
    <circle cx="16" cy="16" r="14" fill="#F44336" stroke="#B71C1C" stroke-width="1" />
    <!-- Sword icon -->
    <path d="M20 12L24 8L23 7L19 11L20 12Z" fill="#FFFFFF" />
    <rect x="12" y="12" width="8" height="2" transform="rotate(45 12 12)" fill="#FFFFFF" />
    <rect x="10" y="14" width="12" height="2" transform="rotate(45 10 14)" fill="#FFFFFF" />
    <rect x="8" y="16" width="8" height="2" transform="rotate(45 8 16)" fill="#FFFFFF" />
  </g>
  
  <!-- 3: Action Button - Build -->
  <g id="action_build" transform="translate(96 0)">
    <circle cx="16" cy="16" r="14" fill="#4CAF50" stroke="#2E7D32" stroke-width="1" />
    <!-- Building icon -->
    <rect x="8" y="16" width="16" height="8" fill="#FFFFFF" />
    <path d="M8 16L16 8L24 16" fill="#FFFFFF" />
  </g>
  
  <!-- 4: Action Button - Research -->
  <g id="action_research" transform="translate(128 0)">
    <circle cx="16" cy="16" r="14" fill="#9C27B0" stroke="#6A1B9A" stroke-width="1" />
    <!-- Book/scroll icon -->
    <path d="M10 10H22V22H10V10Z" fill="#FFFFFF" />
    <path d="M10 12H22M10 16H22M10 20H22" stroke="#9C27B0" stroke-width="1" />
    <rect x="14" y="8" width="4" height="4" fill="#FFFFFF" />
  </g>
  
  <!-- 5: Resource Icon - Food -->
  <g id="resource_food" transform="translate(160 0)">
    <circle cx="16" cy="16" r="14" fill="#4CAF50" stroke="#2E7D32" stroke-width="1" />
    <!-- Corn/grain icon -->
    <ellipse cx="16" cy="18" rx="6" ry="3" fill="#FFEB3B" stroke="#FBC02D" stroke-width="0.5" />
    <ellipse cx="16" cy="14" rx="5" ry="2.5" fill="#FFEB3B" stroke="#FBC02D" stroke-width="0.5" />
    <ellipse cx="16" cy="11" rx="4" ry="2" fill="#FFEB3B" stroke="#FBC02D" stroke-width="0.5" />
    <rect x="15" y="18" width="2" height="6" fill="#2E7D32" />
  </g>
  
  <!-- 6: Resource Icon - Production -->
  <g id="resource_production" transform="translate(192 0)">
    <circle cx="16" cy="16" r="14" fill="#FF9800" stroke="#E65100" stroke-width="1" />
    <!-- Hammer icon -->
    <rect x="12" y="10" width="2" height="12" fill="#FFFFFF" transform="rotate(-30 12 10)" />
    <path d="M8 14L16 22L18 20L10 12L8 14Z" fill="#FFFFFF" />
  </g>
  
  <!-- 7: Resource Icon - Faith -->
  <g id="resource_faith" transform="translate(224 0)">
    <circle cx="16" cy="16" r="14" fill="#2196F3" stroke="#0D47A1" stroke-width="1" />
    <!-- Scripture/tablet icon -->
    <rect x="10" y="10" width="12" height="12" rx="1" fill="#FFFFFF" stroke="#0D47A1" stroke-width="0.5" />
    <path d="M12 14H20M12 16H20M12 18H20" stroke="#0D47A1" stroke-width="0.5" />
    <path d="M16 10L16 22" stroke="#0D47A1" stroke-width="0.25" />
  </g>
  
  <!-- Row 2 -->
  
  <!-- 8: Unit Health - Full -->
  <g id="health_full" transform="translate(0 32)">
    <rect x="4" y="12" width="24" height="8" rx="4" fill="#4CAF50" stroke="#2E7D32" stroke-width="1" />
  </g>
  
  <!-- 9: Unit Health - Half -->
  <g id="health_half" transform="translate(32 32)">
    <rect x="4" y="12" width="24" height="8" rx="4" fill="#FFFFFF" stroke="#2E7D32" stroke-width="1" />
    <rect x="4" y="12" width="12" height="8" rx="4" fill="#4CAF50" />
  </g>
  
  <!-- 10: Unit Health - Low -->
  <g id="health_low" transform="translate(64 32)">
    <rect x="4" y="12" width="24" height="8" rx="4" fill="#FFFFFF" stroke="#B71C1C" stroke-width="1" />
    <rect x="4" y="12" width="6" height="8" rx="3" fill="#F44336" />
  </g>
  
  <!-- 11: Turn Button -->
  <g id="turn_button" transform="translate(96 32)">
    <rect x="4" y="8" width="24" height="16" rx="8" fill="#673AB7" stroke="#311B92" stroke-width="1" />
    <path d="M16 12V20M12 16H20" stroke="#FFFFFF" stroke-width="2" />
  </g>
  
  <!-- 12: Menu Button -->
  <g id="menu_button" transform="translate(128 32)">
    <rect x="8" y="8" width="16" height="16" rx="2" fill="#9E9E9E" stroke="#424242" stroke-width="1" />
    <path d="M10 12H22M10 16H22M10 20H22" stroke="#FFFFFF" stroke-width="1.5" />
  </g>
  
  <!-- 13: Cancel/Close Button -->
  <g id="close_button" transform="translate(160 32)">
    <circle cx="16" cy="16" r="12" fill="#F44336" stroke="#B71C1C" stroke-width="1" />
    <path d="M12 12L20 20M20 12L12 20" stroke="#FFFFFF" stroke-width="2" />
  </g>
  
  <!-- 14: Confirm Button -->
  <g id="confirm_button" transform="translate(192 32)">
    <circle cx="16" cy="16" r="12" fill="#4CAF50" stroke="#2E7D32" stroke-width="1" />
    <path d="M10 16L14 20L22 12" stroke="#FFFFFF" stroke-width="2" fill="none" />
  </g>
  
  <!-- 15: Info Button -->
  <g id="info_button" transform="translate(224 32)">
    <circle cx="16" cy="16" r="12" fill="#2196F3" stroke="#0D47A1" stroke-width="1" />
    <circle cx="16" cy="12" r="1.5" fill="#FFFFFF" />
    <rect x="14.5" y="15" width="3" height="7" rx="1.5" fill="#FFFFFF" />
  </g>
  
  <!-- Row 3 - Minimap Icons -->
  
  <!-- 16: Minimap City -->
  <g id="minimap_city" transform="translate(0 64)">
    <circle cx="16" cy="16" r="8" fill="#FFFFFF" stroke="#000000" stroke-width="1" />
  </g>
  
  <!-- 17: Minimap Unit -->
  <g id="minimap_unit" transform="translate(32 64)">
    <rect x="10" y="10" width="12" height="12" fill="#FFFFFF" stroke="#000000" stroke-width="1" />
  </g>
  
  <!-- 18: Minimap Resource -->
  <g id="minimap_resource" transform="translate(64 64)">
    <path d="M16 8L8 16L16 24L24 16L16 8Z" fill="#FFEB3B" stroke="#000000" stroke-width="1" />
  </g>
  
  <!-- Row 4 - Tech Icons -->
  
  <!-- 19: Tech Writing -->
  <g id="tech_writing" transform="translate(0 96)">
    <circle cx="16" cy="16" r="14" fill="#3F51B5" stroke="#1A237E" stroke-width="1" />
    <rect x="10" y="10" width="12" height="12" rx="1" fill="#FFFFFF" stroke="#1A237E" stroke-width="0.5" />
    <path d="M12 14H20M12 16H20M12 18H16" stroke="#1A237E" stroke-width="0.5" />
  </g>
  
  <!-- 20: Tech Mining -->
  <g id="tech_mining" transform="translate(32 96)">
    <circle cx="16" cy="16" r="14" fill="#795548" stroke="#3E2723" stroke-width="1" />
    <path d="M12 16L12 24L20 24L20 16" fill="#3E2723" stroke="#FFFFFF" stroke-width="0.5" />
    <path d="M14 10L14 16M18 10L18 16" stroke="#FFFFFF" stroke-width="1" />
    <path d="M10 10L22 10L20 14L12 14L10 10Z" fill="#BDBDBD" stroke="#757575" stroke-width="0.5" />
  </g>
  
  <!-- 21: Tech Priesthood -->
  <g id="tech_priesthood" transform="translate(64 96)">
    <circle cx="16" cy="16" r="14" fill="#9C27B0" stroke="#6A1B9A" stroke-width="1" />
    <path d="M12 24L12 12L20 12L20 24" fill="none" stroke="#FFFFFF" stroke-width="1" />
    <path d="M10 12L22 12" stroke="#FFFFFF" stroke-width="1" />
    <path d="M16 8L16 12" stroke="#FFFFFF" stroke-width="1" />
    <circle cx="16" cy="18" r="2" fill="#FFFFFF" />
  </g>
  
  <!-- Row 5 - Faction Icons -->
  
  <!-- 22: Faction Nephite -->
  <g id="faction_nephite" transform="translate(0 128)">
    <circle cx="16" cy="16" r="14" fill="#3F51B5" stroke="#1A237E" stroke-width="1" />
    <path d="M10 22L16 8L22 22L16 18L10 22Z" fill="#FFFFFF" />
  </g>
  
  <!-- 23: Faction Lamanite -->
  <g id="faction_lamanite" transform="translate(32 128)">
    <circle cx="16" cy="16" r="14" fill="#F44336" stroke="#B71C1C" stroke-width="1" />
    <path d="M10 12L12 18L16 10L20 18L22 12" stroke="#FFFFFF" stroke-width="1.5" fill="none" />
    <path d="M12 18L16 22L20 18" stroke="#FFFFFF" stroke-width="1.5" fill="none" />
  </g>
  
  <!-- 24: Faction Jaredite -->
  <g id="faction_jaredite" transform="translate(64 128)">
    <circle cx="16" cy="16" r="14" fill="#4CAF50" stroke="#2E7D32" stroke-width="1" />
    <path d="M10 16C10 12 16 10 16 10C16 10 22 12 22 16C22 20 16 22 16 22C16 22 10 20 10 16Z" fill="none" stroke="#FFFFFF" stroke-width="1.5" />
    <path d="M13 14L13 18M16 13L16 19M19 14L19 18" stroke="#FFFFFF" stroke-width="1" />
  </g>
  
  <!-- 25: Faction Mulekite -->
  <g id="faction_mulekite" transform="translate(96 128)">
    <circle cx="16" cy="16" r="14" fill="#FFC107" stroke="#FF8F00" stroke-width="1" />
    <path d="M12 10H20L16 16L20 22H12L16 16L12 10Z" fill="#FFFFFF" />
  </g>
  
  <!-- Row 6 - Game Symbols -->
  
  <!-- 26: Victory Star -->
  <g id="victory_star" transform="translate(0 160)">
    <path d="M16 6L18.5 13.5H26.5L20 18L22.5 25.5L16 21L9.5 25.5L12 18L5.5 13.5H13.5L16 6Z" fill="#FFC107" stroke="#FF8F00" stroke-width="1" />
  </g>
  
  <!-- 27: Combat Icon -->
  <g id="combat_icon" transform="translate(32 160)">
    <path d="M8 16L12 12L12 8L20 16L24 16L14 26L8 16Z" fill="#F44336" stroke="#B71C1C" stroke-width="1" />
    <path d="M24 16L20 20L20 24L12 16L8 16L18 6L24 16Z" fill="#F44336" stroke="#B71C1C" stroke-width="1" />
  </g>
  
  <!-- 28: Movement Points -->
  <g id="movement_points" transform="translate(64 160)">
    <circle cx="16" cy="16" r="14" fill="#03A9F4" stroke="#0277BD" stroke-width="1" />
    <path d="M16 8V24M8 16H24" stroke="#FFFFFF" stroke-width="2" />
    <path d="M12 12L20 20M12 20L20 12" stroke="#FFFFFF" stroke-width="1.5" />
  </g>
  
  <!-- 29: Range Icon -->
  <g id="range_icon" transform="translate(96 160)">
    <circle cx="16" cy="16" r="14" fill="#607D8B" stroke="#455A64" stroke-width="1" />
    <circle cx="16" cy="16" r="10" fill="none" stroke="#FFFFFF" stroke-width="1" stroke-dasharray="2 2" />
    <circle cx="16" cy="16" r="5" fill="none" stroke="#FFFFFF" stroke-width="1" />
    <circle cx="16" cy="16" r="2" fill="#FFFFFF" />
  </g>
  
  <!-- Row 7 - Grid/Selection Icons -->
  
  <!-- 30: Grid Toggle -->
  <g id="grid_toggle" transform="translate(0 192)">
    <rect x="4" y="4" width="24" height="24" rx="2" fill="#9E9E9E" stroke="#424242" stroke-width="1" />
    <path d="M4 12H28M4 20H28M12 4V28M20 4V28" stroke="#FFFFFF" stroke-width="1" />
  </g>
  
  <!-- 31: City Selection -->
  <g id="city_selection" transform="translate(32 192)">
    <rect x="8" y="10" width="16" height="16" fill="#FAFAFA" stroke="#616161" stroke-width="1" />
    <path d="M8 10L16 4L24 10" fill="#616161" stroke="#616161" stroke-width="1" />
    <path d="M12 22H20M12 18H20M12 14H20" stroke="#616161" stroke-width="1" />
  </g>
</svg>
