<svg xmlns="http://www.w3.org/2000/svg" viewBox="0 0 896 448">
  <!-- Unit Sprite Sheet - 14 types of units (64x64px each) -->
  
  <!-- 0: Settler -->
  <g id="settler">
    <ellipse cx="32" cy="50" rx="12" ry="6" fill="#888888" opacity="0.3" />
    <!-- Body -->
    <rect x="28" y="30" width="8" height="16" fill="#B08D57" />
    <!-- Head -->
    <circle cx="32" cy="26" r="6" fill="#F2D2A9" />
    <!-- Arms -->
    <rect x="22" y="32" width="6" height="4" fill="#B08D57" />
    <rect x="36" y="32" width="6" height="4" fill="#B08D57" />
    <!-- Legs -->
    <rect x="28" y="46" width="3" height="6" fill="#B08D57" />
    <rect x="33" y="46" width="3" height="6" fill="#B08D57" />
    <!-- Supplies pack -->
    <rect x="25" y="36" width="14" height="8" fill="#DEB887" stroke="#8B4513" stroke-width="1" />
    <rect x="29" y="32" width="6" height="4" fill="#DEB887" stroke="#8B4513" stroke-width="1" />
  </g>
  
  <!-- 1: Worker -->
  <g id="worker" transform="translate(64 0)">
    <ellipse cx="32" cy="50" rx="12" ry="6" fill="#888888" opacity="0.3" />
    <!-- Body -->
    <rect x="28" y="30" width="8" height="16" fill="#3F7CAA" />
    <!-- Head -->
    <circle cx="32" cy="26" r="6" fill="#F2D2A9" />
    <!-- Arms -->
    <rect x="22" y="32" width="6" height="4" fill="#3F7CAA" />
    <rect x="36" y="32" width="6" height="4" fill="#3F7CAA" />
    <!-- Legs -->
    <rect x="28" y="46" width="3" height="6" fill="#3F7CAA" />
    <rect x="33" y="46" width="3" height="6" fill="#3F7CAA" />
    <!-- Tools - Pickaxe -->
    <line x1="42" y1="26" x2="36" y2="36" stroke="#8B4513" stroke-width="2" />
    <path d="M42 26L46 22L44 20L40 24L42 26Z" fill="#A9A9A9" />
  </g>
  
  <!-- 2: Warrior -->
  <g id="warrior" transform="translate(128 0)">
    <ellipse cx="32" cy="50" rx="12" ry="6" fill="#888888" opacity="0.3" />
    <!-- Body -->
    <rect x="28" y="30" width="8" height="16" fill="#8B0000" />
    <!-- Head -->
    <circle cx="32" cy="26" r="6" fill="#F2D2A9" />
    <!-- Arms -->
    <rect x="22" y="32" width="6" height="4" fill="#8B0000" />
    <rect x="36" y="32" width="6" height="4" fill="#8B0000" />
    <!-- Legs -->
    <rect x="28" y="46" width="3" height="6" fill="#8B0000" />
    <rect x="33" y="46" width="3" height="6" fill="#8B0000" />
    <!-- Weapon - Sword -->
    <rect x="38" y="24" width="2" height="12" fill="#A9A9A9" />
    <path d="M37 24L41 24L39 18L37 24Z" fill="#A9A9A9" />
    <!-- Shield -->
    <path d="M24 30L24 38L20 34L24 30Z" fill="#A9A9A9" stroke="#696969" stroke-width="1" />
  </g>
  
  <!-- 3: Archer -->
  <g id="archer" transform="translate(192 0)">
    <ellipse cx="32" cy="50" rx="12" ry="6" fill="#888888" opacity="0.3" />
    <!-- Body -->
    <rect x="28" y="30" width="8" height="16" fill="#006400" />
    <!-- Head -->
    <circle cx="32" cy="26" r="6" fill="#F2D2A9" />
    <!-- Arms -->
    <rect x="22" y="32" width="6" height="4" fill="#006400" />
    <rect x="36" y="32" width="6" height="4" fill="#006400" />
    <!-- Legs -->
    <rect x="28" y="46" width="3" height="6" fill="#006400" />
    <rect x="33" y="46" width="3" height="6" fill="#006400" />
    <!-- Weapon - Bow -->
    <path d="M40 26C44 30 44 38 40 42" stroke="#8B4513" stroke-width="2" fill="none" />
    <line x1="40" y1="34" x2="28" y2="34" stroke="#8B4513" stroke-width="1" />
  </g>
  
  <!-- 4: Spearman -->
  <g id="spearman" transform="translate(256 0)">
    <ellipse cx="32" cy="50" rx="12" ry="6" fill="#888888" opacity="0.3" />
    <!-- Body -->
    <rect x="28" y="30" width="8" height="16" fill="#8B008B" />
    <!-- Head -->
    <circle cx="32" cy="26" r="6" fill="#F2D2A9" />
    <!-- Arms -->
    <rect x="22" y="32" width="6" height="4" fill="#8B008B" />
    <rect x="36" y="32" width="6" height="4" fill="#8B008B" />
    <!-- Legs -->
    <rect x="28" y="46" width="3" height="6" fill="#8B008B" />
    <rect x="33" y="46" width="3" height="6" fill="#8B008B" />
    <!-- Weapon - Spear -->
    <line x1="22" y1="40" x2="46" y2="16" stroke="#8B4513" stroke-width="2" />
    <path d="M46 16L48 14L46 12L44 14L46 16Z" fill="#A9A9A9" />
  </g>
  
  <!-- 5: Chariot -->
  <g id="chariot" transform="translate(320 0)">
    <ellipse cx="32" cy="50" rx="16" ry="6" fill="#888888" opacity="0.3" />
    <!-- Chariot base -->
    <rect x="22" y="38" width="20" height="8" fill="#8B4513" />
    <!-- Wheels -->
    <circle cx="24" cy="46" r="4" fill="#A9A9A9" stroke="#696969" />
    <circle cx="40" cy="46" r="4" fill="#A9A9A9" stroke="#696969" />
    <!-- Chariot driver -->
    <rect x="28" y="30" width="8" height="8" fill="#DAA520" />
    <circle cx="32" cy="26" r="4" fill="#F2D2A9" />
    <!-- Horse -->
    <path d="M18 40C16 38 14 38 12 40L14 32L18 40Z" fill="#8B4513" />
    <rect x="14" y="40" width="8" height="4" fill="#8B4513" />
    <line x1="16" y1="44" x2="16" y2="48" stroke="#8B4513" stroke-width="2" />
    <line x1="20" y1="44" x2="20" y2="48" stroke="#8B4513" stroke-width="2" />
  </g>
  
  <!-- 6: Stripling Warrior (Nephite) -->
  <g id="stripling_warrior" transform="translate(384 0)">
    <ellipse cx="32" cy="50" rx="12" ry="6" fill="#888888" opacity="0.3" />
    <!-- Body -->
    <rect x="28" y="30" width="8" height="16" fill="#3F51B5" />
    <!-- Head -->
    <circle cx="32" cy="26" r="6" fill="#F2D2A9" />
    <!-- Arms -->
    <rect x="22" y="32" width="6" height="4" fill="#3F51B5" />
    <rect x="36" y="32" width="6" height="4" fill="#3F51B5" />
    <!-- Legs -->
    <rect x="28" y="46" width="3" height="6" fill="#3F51B5" />
    <rect x="33" y="46" width="3" height="6" fill="#3F51B5" />
    <!-- Armor -->
    <path d="M26 30L38 30L38 40L32 44L26 40L26 30Z" fill="none" stroke="#C0C0C0" stroke-width="1" />
    <!-- Sword -->
    <rect x="40" y="24" width="2" height="14" fill="#C0C0C0" />
    <path d="M39 24L43 24L41 20L39 24Z" fill="#C0C0C0" />
    <!-- Shield -->
    <path d="M20 30L20 40L24 44L24 34L20 30Z" fill="#C0C0C0" stroke="#696969" stroke-width="1" />
  </g>
  
  <!-- 7: Title of Liberty Bearer (Nephite) -->
  <g id="title_of_liberty" transform="translate(448 0)">
    <ellipse cx="32" cy="50" rx="12" ry="6" fill="#888888" opacity="0.3" />
    <!-- Body -->
    <rect x="28" y="30" width="8" height="16" fill="#3F51B5" />
    <!-- Head -->
    <circle cx="32" cy="26" r="6" fill="#F2D2A9" />
    <!-- Arms -->
    <rect x="22" y="32" width="6" height="4" fill="#3F51B5" />
    <rect x="36" y="32" width="6" height="4" fill="#3F51B5" />
    <!-- Legs -->
    <rect x="28" y="46" width="3" height="6" fill="#3F51B5" />
    <rect x="33" y="46" width="3" height="6" fill="#3F51B5" />
    <!-- Title of Liberty Flag -->
    <rect x="42" y="14" width="2" height="22" fill="#8B4513" />
    <path d="M44 14L44 26L52 20L44 14Z" fill="#FFFFFF" stroke="#696969" stroke-width="1" />
  </g>
  
  <!-- 8: Lamanite Warrior -->
  <g id="lamanite_warrior" transform="translate(512 0)">
    <ellipse cx="32" cy="50" rx="12" ry="6" fill="#888888" opacity="0.3" />
    <!-- Body -->
    <rect x="28" y="30" width="8" height="16" fill="#F44336" />
    <!-- Head -->
    <circle cx="32" cy="26" r="6" fill="#8B4513" />
    <!-- Arms -->
    <rect x="22" y="32" width="6" height="4" fill="#F44336" />
    <rect x="36" y="32" width="6" height="4" fill="#F44336" />
    <!-- Legs -->
    <rect x="28" y="46" width="3" height="6" fill="#F44336" />
    <rect x="33" y="46" width="3" height="6" fill="#F44336" />
    <!-- War club -->
    <rect x="42" y="26" width="2" height="10" fill="#8B4513" />
    <path d="M41 26L45 26L45 22L41 22L41 26Z" fill="#8B4513" />
    <!-- Feathers -->
    <path d="M30 20L27 16M34 20L37 16" stroke="#FFF" stroke-width="1" />
  </g>
  
  <!-- 9: Gadianton Robber -->
  <g id="gadianton_robber" transform="translate(576 0)">
    <ellipse cx="32" cy="50" rx="12" ry="6" fill="#888888" opacity="0.3" />
    <!-- Body -->
    <rect x="28" y="30" width="8" height="16" fill="#212121" />
    <!-- Head with mask -->
    <circle cx="32" cy="26" r="6" fill="#696969" />
    <path d="M28 26L36 26" stroke="#000" stroke-width="1" />
    <!-- Arms -->
    <rect x="22" y="32" width="6" height="4" fill="#212121" />
    <rect x="36" y="32" width="6" height="4" fill="#212121" />
    <!-- Legs -->
    <rect x="28" y="46" width="3" height="6" fill="#212121" />
    <rect x="33" y="46" width="3" height="6" fill="#212121" />
    <!-- Dagger -->
    <path d="M38 30L42 26L40 24L36 28L38 30Z" fill="#A9A9A9" />
    <path d="M38 30L38 35" stroke="#A9A9A9" stroke-width="1" />
  </g>
  
  <!-- 10: Jaredite Champion -->
  <g id="jaredite_champion" transform="translate(640 0)">
    <ellipse cx="32" cy="50" rx="14" ry="6" fill="#888888" opacity="0.3" />
    <!-- Body -->
    <rect x="26" y="30" width="12" height="16" fill="#4CAF50" />
    <!-- Head -->
    <circle cx="32" cy="26" r="6" fill="#F2D2A9" />
    <!-- Arms -->
    <rect x="20" y="32" width="6" height="6" fill="#4CAF50" />
    <rect x="38" y="32" width="6" height="6" fill="#4CAF50" />
    <!-- Legs -->
    <rect x="28" y="46" width="4" height="6" fill="#4CAF50" />
    <rect x="34" y="46" width="4" height="6" fill="#4CAF50" />
    <!-- Armor plate -->
    <rect x="26" y="32" width="12" height="8" fill="none" stroke="#A9A9A9" />
    <!-- Great axe -->
    <rect x="42" y="20" width="2" height="16" fill="#8B4513" />
    <path d="M44 20L48 16L48 24L44 20Z" fill="#A9A9A9" />
  </g>
  
  <!-- 11: Deseret Warrior (Jaredite) -->
  <g id="deseret_warrior" transform="translate(704 0)">
    <ellipse cx="32" cy="50" rx="12" ry="6" fill="#888888" opacity="0.3" />
    <!-- Body -->
    <rect x="28" y="30" width="8" height="16" fill="#4CAF50" />
    <!-- Head -->
    <circle cx="32" cy="26" r="6" fill="#F2D2A9" />
    <!-- Arms -->
    <rect x="22" y="32" width="6" height="4" fill="#4CAF50" />
    <rect x="36" y="32" width="6" height="4" fill="#4CAF50" />
    <!-- Legs -->
    <rect x="28" y="46" width="3" height="6" fill="#4CAF50" />
    <rect x="33" y="46" width="3" height="6" fill="#4CAF50" />
    <!-- Deseret symbol (beehive) -->
    <path d="M38 28C42 28 42 38 38 38" stroke="#FFD700" stroke-width="1" fill="none" />
    <path d="M38 30L40 30M38 32L40 32M38 34L40 34M38 36L40 36" stroke="#FFD700" stroke-width="1" />
  </g>
  
  <!-- 12: Mulekite Merchant -->
  <g id="mulekite_merchant" transform="translate(768 0)">
    <ellipse cx="32" cy="50" rx="12" ry="6" fill="#888888" opacity="0.3" />
    <!-- Body -->
    <rect x="28" y="30" width="8" height="16" fill="#FFC107" />
    <!-- Head -->
    <circle cx="32" cy="26" r="6" fill="#F2D2A9" />
    <!-- Arms -->
    <rect x="22" y="32" width="6" height="4" fill="#FFC107" />
    <rect x="36" y="32" width="6" height="4" fill="#FFC107" />
    <!-- Legs -->
    <rect x="28" y="46" width="3" height="6" fill="#FFC107" />
    <rect x="33" y="46" width="3" height="6" fill="#FFC107" />
    <!-- Trade goods -->
    <rect x="23" y="36" width="18" height="6" fill="#DEB887" stroke="#8B4513" stroke-width="1" />
    <path d="M26 36L26 32M32 36L32 32M38 36L38 32" stroke="#8B4513" stroke-width="1" />
  </g>
  
  <!-- 13: Interpreter (Mulekite) -->
  <g id="interpreter" transform="translate(832 0)">
    <ellipse cx="32" cy="50" rx="12" ry="6" fill="#888888" opacity="0.3" />
    <!-- Body -->
    <rect x="28" y="30" width="8" height="16" fill="#FFC107" />
    <!-- Head -->
    <circle cx="32" cy="26" r="6" fill="#F2D2A9" />
    <!-- Arms -->
    <rect x="22" y="32" width="6" height="4" fill="#FFC107" />
    <rect x="36" y="32" width="6" height="4" fill="#FFC107" />
    <!-- Legs -->
    <rect x="28" y="46" width="3" height="6" fill="#FFC107" />
    <rect x="33" y="46" width="3" height="6" fill="#FFC107" />
    <!-- Scroll -->
    <path d="M24 30C24 26 28 26 28 30" stroke="#F5F5F5" fill="#FFFFFF" />
    <path d="M28 30L40 30L40 38L28 38L28 30Z" fill="#FFFFFF" stroke="#696969" stroke-width="1" />
    <path d="M30 32L38 32M30 34L38 34M30 36L38 36" stroke="#696969" stroke-width="0.5" />
  </g>
</svg>
